<svg xmlns="http://www.w3.org/2000/svg" width="1600" height="900" viewBox="0 0 1600 900" role="img" aria-labelledby="title desc">
  <title id="title">Priva-city alternate polish board</title>
  <desc id="desc">Alternate cold terminal-district visual reference, retained as a rejected exploration.</desc>
  <style>
    .px { shape-rendering: crispEdges; }
    .label { font-family: monospace; font-size: 22px; font-weight: 700; letter-spacing: 0; fill: #98e7ff; }
    .small { font-family: monospace; font-size: 15px; font-weight: 700; letter-spacing: 0; fill: #eefaff; }
    .tiny { font-family: monospace; font-size: 12px; font-weight: 700; letter-spacing: 0; fill: #eefaff; }
  </style>
  <rect class="px" width="1600" height="900" fill="#050b12"/>
  <rect class="px" y="0" width="1600" height="780" fill="#081823"/>
  <g class="px" opacity="0.6" fill="#123246">
    <rect x="0" y="200" width="120" height="580"/>
    <rect x="160" y="120" width="180" height="660"/>
    <rect x="390" y="245" width="130" height="535"/>
    <rect x="610" y="80" width="230" height="700"/>
    <rect x="910" y="180" width="150" height="600"/>
    <rect x="1130" y="100" width="210" height="680"/>
    <rect x="1400" y="230" width="130" height="550"/>
  </g>
  <g class="px" opacity="0.75">
    <path d="M0 400h1600v44H0zM0 598h1600v44H0z" fill="#102a33"/>
    <path d="M250 0h46v780h-46zM780 0h46v780h-46zM1295 0h46v780h-46z" fill="#102a33"/>
    <g stroke="#245c6d" stroke-width="2">
      <path d="M0 400h1600M0 444h1600M0 598h1600M0 642h1600M250 0v780M296 0v780M780 0v780M826 0v780M1295 0v780M1341 0v780"/>
    </g>
  </g>
  <g class="px">
    <rect x="130" y="505" width="285" height="195" fill="#0b2230" stroke="#245c6d" stroke-width="4"/>
    <rect x="510" y="475" width="300" height="225" fill="#0b2230" stroke="#245c6d" stroke-width="4"/>
    <rect x="900" y="500" width="280" height="200" fill="#0b2230" stroke="#245c6d" stroke-width="4"/>
    <rect x="1255" y="455" width="260" height="245" fill="#0b2230" stroke="#245c6d" stroke-width="4"/>
    <g fill="#98e7ff" opacity="0.72">
      <rect x="165" y="548" width="38" height="8"/>
      <rect x="220" y="548" width="38" height="8"/>
      <rect x="560" y="520" width="38" height="8"/>
      <rect x="620" y="520" width="38" height="8"/>
      <rect x="958" y="545" width="38" height="8"/>
      <rect x="1018" y="545" width="38" height="8"/>
      <rect x="1310" y="500" width="38" height="8"/>
      <rect x="1370" y="500" width="38" height="8"/>
    </g>
  </g>
  <g class="px">
    <rect x="0" y="760" width="1600" height="70" fill="#0b2230"/>
    <rect x="0" y="754" width="1600" height="6" fill="#98e7ff"/>
    <rect x="0" y="830" width="1600" height="70" fill="#050b12"/>
  </g>
  <g class="px">
    <rect x="50" y="30" width="44" height="44" fill="none" stroke="#98e7ff" stroke-width="5"/>
    <text x="112" y="48" class="label">COMPLIANCE TERMINAL DISTRICT</text>
    <text x="112" y="74" class="small">PRIVA-CITY POLISH DIRECTION B - NOT SELECTED</text>
    <rect x="1245" y="32" width="315" height="210" fill="#050b12" opacity="0.92" stroke="#245c6d" stroke-width="2"/>
    <text x="1265" y="66" class="small">MAIN QUEST</text>
    <text x="1265" y="96" class="tiny">VERIFY 4 CONTROL STATIONS.</text>
    <g fill="none" stroke="#98e7ff" stroke-width="3">
      <rect x="1265" y="122" width="24" height="24"/>
      <rect x="1302" y="122" width="24" height="24"/>
      <rect x="1339" y="122" width="24" height="24"/>
      <rect x="1376" y="122" width="24" height="24"/>
    </g>
    <text x="1265" y="185" class="small">REJECTION NOTE</text>
    <text x="1265" y="212" class="tiny">TOO CLOSE TO CURRENT GRID PROTOTYPE.</text>
  </g>
</svg>
